<?xml version="1.0" ?><!DOCTYPE svg  PUBLIC '-//W3C//DTD SVG 1.1//EN'  'http://www.w3.org/Graphics/SVG/1.1/DTD/svg11.dtd'><svg enable-background="new 0 0 75 75" height="75px" version="1.1" viewBox="0 0 75 75" width="75px" xml:space="preserve" xmlns="http://www.w3.org/2000/svg" xmlns:xlink="http://www.w3.org/1999/xlink"><g id="Layer_1"><g><g><g><g><path d="M52.374,31.948h-8.449h-12.85h-8.449c-2.299,0-4.164,1.863-4.164,4.164v0.834       c0,2.299,1.865,4.162,4.164,4.162h5.4v9.531c-0.004,0.008-0.011,0.014-0.013,0.021l-3.061,7.389       c-2.03-0.623-4.231,0.369-5.062,2.369l-0.32,0.77c-0.88,2.123,0.129,4.561,2.254,5.441l3.472,1.438       c0.004,0.002,0.007,0.004,0.01,0.006l0.771,0.318c2.124,0.881,4.561-0.129,5.442-2.252l4.379-10.568h3.205L43.48,66.14       c0.882,2.123,3.318,3.133,5.442,2.252l0.771-0.318c0.003-0.002,0.006-0.004,0.01-0.006l3.473-1.438       c2.124-0.881,3.133-3.318,2.253-5.441l-0.32-0.77c-0.83-2-3.031-2.992-5.062-2.369l-3.061-7.389       c-0.002-0.008-0.009-0.014-0.013-0.021v-9.531h5.4c2.299,0,4.164-1.863,4.164-4.162v-0.834       C56.538,33.812,54.673,31.948,52.374,31.948z" fill="#0CAFAF"/></g><g><path d="M56.478,37.54c-0.292-2.014-2.008-3.566-4.104-3.566h-8.449h-12.85h-8.449       c-2.096,0-3.812,1.553-4.104,3.566c0.292,2.016,2.008,3.568,4.104,3.568h5.4v2.025v7.506v2.025       c-0.004,0.006-0.011,0.012-0.013,0.02l-3.061,7.389c-2.03-0.621-4.231,0.371-5.062,2.369l-0.32,0.771       c-0.08,0.191-0.126,0.389-0.176,0.586c0.312,1.229,1.167,2.307,2.43,2.83l3.472,1.438c0.004,0.002,0.007,0.004,0.01,0.006       l0.771,0.318c2.124,0.881,4.561-0.129,5.442-2.252l4.379-10.568h3.205L43.48,66.14c0.882,2.123,3.318,3.133,5.442,2.252       l0.771-0.318c0.003-0.002,0.006-0.004,0.01-0.006l3.473-1.438c1.262-0.523,2.116-1.602,2.429-2.83       c-0.05-0.197-0.096-0.395-0.176-0.586l-0.32-0.771c-0.83-1.998-3.031-2.99-5.062-2.369l-3.061-7.389       c-0.002-0.008-0.009-0.014-0.013-0.02V50.64v-7.506v-2.025h5.4C54.47,41.108,56.186,39.556,56.478,37.54z" fill="#109BAD"/></g><g><line fill="#BC2A54" x1="45.277" x2="50.676" y1="41.108" y2="41.108"/></g><g><line fill="#BC2A54" x1="22.278" x2="29.722" y1="41.108" y2="41.108"/></g><g><line fill="#BC2A54" x1="34.2" x2="40.8" y1="55.571" y2="55.571"/></g></g><g><g><path d="M47.331,69.46c-1.995,0-3.778-1.19-4.543-3.032l-4.186-10.106h-2.203l-4.187,10.105       c-0.766,1.843-2.549,3.033-4.544,3.033c-0.646,0-1.278-0.126-1.879-0.376l-0.77-0.317c-0.016-0.007-0.031-0.014-0.046-0.021       l-3.437-1.422c-2.504-1.038-3.697-3.919-2.659-6.422l0.32-0.771c0.859-2.071,3.08-3.306,5.304-2.954l2.773-6.695v-8.623h-4.65       c-2.71,0-4.914-2.203-4.914-4.912v-0.834c0-2.71,2.204-4.914,4.914-4.914h29.748c2.71,0,4.914,2.204,4.914,4.914v0.834       c0,2.709-2.204,4.912-4.914,4.912h-4.65v8.623l2.773,6.695c2.225-0.351,4.444,0.882,5.304,2.955l0.32,0.769       c1.038,2.504-0.155,5.384-2.658,6.422l-3.438,1.424c-0.015,0.007-0.03,0.014-0.046,0.021l-0.771,0.318       C48.609,69.334,47.977,69.46,47.331,69.46z M35.898,54.821h3.205c0.304,0,0.577,0.183,0.693,0.463l4.377,10.568       c0.531,1.28,1.771,2.107,3.157,2.107c0.447,0,0.887-0.088,1.305-0.261l4.253-1.763c1.739-0.721,2.567-2.722,1.848-4.461       l-0.32-0.769c-0.657-1.585-2.486-2.448-4.149-1.94c-0.364,0.113-0.765-0.072-0.913-0.43l-3.042-7.345       c-0.003-0.006-0.006-0.012-0.009-0.017c-0.052-0.104-0.079-0.22-0.079-0.336v-9.531c0-0.414,0.336-0.75,0.75-0.75h5.4       c1.883,0,3.414-1.53,3.414-3.412v-0.834c0-1.883-1.531-3.414-3.414-3.414H22.626c-1.883,0-3.414,1.531-3.414,3.414v0.834       c0,1.882,1.531,3.412,3.414,3.412h5.4c0.414,0,0.75,0.336,0.75,0.75v9.531c0,0.116-0.027,0.231-0.079,0.336       c-0.003,0.005-0.006,0.011-0.009,0.017l-3.042,7.345c-0.148,0.356-0.544,0.542-0.913,0.43       c-0.329-0.101-0.668-0.151-1.009-0.151c-1.381,0-2.613,0.82-3.141,2.091l-0.32,0.771c-0.72,1.738,0.109,3.739,1.849,4.461       l3.472,1.437c0.014,0.006,0.027,0.013,0.042,0.02l0.737,0.305c0.419,0.174,0.858,0.262,1.306,0.262       c1.387,0,2.626-0.827,3.158-2.108l4.378-10.567C35.321,55.004,35.595,54.821,35.898,54.821z" fill="#093260"/></g><g><path d="M50.676,41.858h-5.398c-0.414,0-0.75-0.336-0.75-0.75s0.336-0.75,0.75-0.75h5.398       c0.414,0,0.75,0.336,0.75,0.75S51.09,41.858,50.676,41.858z" fill="#093260"/></g><g><path d="M29.722,41.858h-7.443c-0.414,0-0.75-0.336-0.75-0.75s0.336-0.75,0.75-0.75h7.443       c0.414,0,0.75,0.336,0.75,0.75S30.136,41.858,29.722,41.858z" fill="#093260"/></g><g><path d="M40.8,56.321h-6.6c-0.414,0-0.75-0.336-0.75-0.75s0.336-0.75,0.75-0.75h6.6       c0.414,0,0.75,0.336,0.75,0.75S41.214,56.321,40.8,56.321z" fill="#093260"/></g></g><g><g><g><path d="M21.498,40.173c0,0.494-0.66,0.895-1.471,0.895h-2.062c-0.813,0-1.474-0.4-1.474-0.895v-6.838        c0-0.492,0.66-0.893,1.474-0.893h2.062c0.811,0,1.471,0.4,1.471,0.893V40.173z" fill="#EAE8C3"/></g><g><path d="M20.027,41.817h-2.062c-1.268,0-2.224-0.707-2.224-1.645v-6.838c0-0.937,0.956-1.643,2.224-1.643        h2.062c1.266,0,2.221,0.706,2.221,1.643v6.838C22.248,41.11,21.293,41.817,20.027,41.817z M17.248,40.171        c0.047,0,0.3,0.146,0.717,0.146h2.062c0.443,0,0.701-0.167,0.739-0.225l-0.019-6.758c-0.013,0.022-0.273-0.143-0.721-0.143        h-2.062c-0.445,0-0.704,0.167-0.743,0.226l0.02,6.755C17.242,40.171,17.245,40.171,17.248,40.171z" fill="#093260"/></g></g><g><g><path d="M58.509,40.173c0,0.494-0.66,0.895-1.474,0.895h-2.061c-0.812,0-1.473-0.4-1.473-0.895v-6.838        c0-0.492,0.66-0.893,1.473-0.893h2.061c0.813,0,1.474,0.4,1.474,0.893V40.173z" fill="#EAE8C3"/></g><g><path d="M57.035,41.817h-2.061c-1.268,0-2.223-0.707-2.223-1.645v-6.838c0-0.937,0.955-1.643,2.223-1.643        h2.061c1.268,0,2.224,0.706,2.224,1.643v6.838C59.259,41.11,58.303,41.817,57.035,41.817z M54.259,40.171        c0.047,0,0.3,0.146,0.716,0.146h2.061c0.445,0,0.704-0.168,0.742-0.226l-0.019-6.757c-0.014,0.025-0.276-0.143-0.724-0.143        h-2.061c-0.444,0-0.703,0.167-0.742,0.226l0.02,6.755C54.253,40.171,54.256,40.171,54.259,40.171z" fill="#093260"/></g></g></g><g><g><path d="M31.52,66.14l1.785-4.312c-0.184-1.229-0.753-2.188-1.666-2.578l-6.095-2.623l-0.591,1.424       c-2.03-0.623-4.231,0.369-5.062,2.369l-0.32,0.77c-0.88,2.123,0.129,4.561,2.254,5.441l3.472,1.438       c0.004,0.002,0.007,0.004,0.01,0.006l0.771,0.318C28.201,69.272,30.638,68.263,31.52,66.14z" fill="#F7F5DC"/></g><g><path d="M31.639,59.249l-5.384-2.318l-1.302,3.143c-2.03-0.621-4.231,0.371-5.062,2.369l-0.32,0.771       c-0.08,0.191-0.126,0.389-0.176,0.586l0.001,0.002c0.073,0.289,0.182,0.566,0.313,0.834c0.02,0.037,0.04,0.074,0.062,0.113       c0.117,0.221,0.258,0.43,0.413,0.625c0.045,0.057,0.086,0.113,0.134,0.164c0.152,0.176,0.326,0.332,0.508,0.479       c0.062,0.051,0.117,0.105,0.183,0.152c0.249,0.178,0.519,0.336,0.816,0.461l3.472,1.438c0.004,0.002,0.007,0.004,0.01,0.006       l0.771,0.318c2.124,0.881,4.561-0.129,5.442-2.252l1.785-4.312C33.121,60.599,32.552,59.64,31.639,59.249z" fill="#EAE8C3"/></g><g><path d="M55.429,61.188l-0.32-0.77c-0.83-2-3.031-2.992-5.062-2.369l-0.59-1.424l-6.097,2.623       c-0.912,0.391-1.481,1.35-1.665,2.578l1.785,4.312c0.882,2.123,3.318,3.133,5.442,2.252l0.771-0.318       c0.003-0.002,0.006-0.004,0.01-0.006l3.473-1.438C55.3,65.749,56.309,63.312,55.429,61.188z" fill="#F7F5DC"/></g><g><path d="M54.174,66.017c0.182-0.146,0.355-0.303,0.508-0.479c0.048-0.051,0.089-0.107,0.134-0.164       c0.155-0.195,0.296-0.404,0.413-0.625c0.021-0.039,0.042-0.076,0.062-0.113c0.132-0.268,0.24-0.545,0.313-0.834l0.001-0.002       c-0.05-0.197-0.096-0.395-0.176-0.586l-0.32-0.771c-0.83-1.998-3.031-2.99-5.062-2.369l-1.302-3.143l-5.385,2.318       c-0.912,0.391-1.481,1.35-1.665,2.578l1.785,4.312c0.882,2.123,3.318,3.133,5.442,2.252l0.771-0.318       c0.003-0.002,0.006-0.004,0.01-0.006l3.473-1.438c0.297-0.125,0.566-0.283,0.815-0.461       C54.057,66.122,54.111,66.067,54.174,66.017z" fill="#EAE8C3"/></g></g><g><g><path d="M27.67,69.46C27.669,69.46,27.669,69.46,27.67,69.46c-0.646,0-1.279-0.126-1.88-0.376l-0.77-0.317       c-0.016-0.007-0.031-0.014-0.046-0.021l-3.437-1.422c-2.504-1.038-3.697-3.919-2.659-6.422l0.32-0.771       c0.76-1.832,2.536-3.016,4.525-3.016c0.261,0,0.521,0.021,0.778,0.062l0.349-0.838c0.076-0.186,0.225-0.332,0.41-0.408       c0.187-0.074,0.395-0.073,0.579,0.007l6.095,2.623c1.129,0.482,1.879,1.604,2.111,3.155c0.02,0.135,0.003,0.272-0.049,0.398       l-1.785,4.312C31.447,68.27,29.664,69.46,27.67,69.46z M25.626,67.394l0.737,0.305c0.419,0.174,0.858,0.262,1.306,0.262       c1.387,0,2.626-0.827,3.158-2.108l1.702-4.111c-0.118-0.602-0.419-1.474-1.186-1.802l-5.398-2.323l-0.3,0.722       c-0.147,0.358-0.543,0.542-0.912,0.43c-0.329-0.101-0.668-0.151-1.009-0.151c-1.381,0-2.613,0.82-3.141,2.091l-0.32,0.771       c-0.72,1.738,0.109,3.739,1.849,4.461l3.472,1.437C25.598,67.38,25.611,67.387,25.626,67.394z" fill="#093260"/></g><g><path d="M47.331,69.46L47.331,69.46c-1.995,0-3.778-1.19-4.543-3.032l-1.786-4.313       c-0.052-0.126-0.068-0.264-0.049-0.398c0.232-1.552,0.982-2.673,2.112-3.156l6.095-2.622c0.186-0.08,0.394-0.081,0.579-0.007       c0.186,0.076,0.334,0.223,0.411,0.408l0.347,0.838c2.225-0.351,4.444,0.882,5.304,2.955l0.32,0.769       c1.038,2.504-0.155,5.384-2.658,6.422l-3.438,1.423c-0.015,0.008-0.03,0.015-0.046,0.021l-0.771,0.318       C48.609,69.334,47.977,69.46,47.331,69.46z M42.471,61.74l1.703,4.112c0.531,1.28,1.771,2.107,3.157,2.107l0,0       c0.447,0,0.887-0.088,1.305-0.261l4.253-1.763c1.739-0.721,2.567-2.722,1.848-4.461l-0.32-0.769       c-0.657-1.585-2.486-2.448-4.149-1.94c-0.364,0.113-0.765-0.072-0.913-0.43l-0.299-0.722l-5.397,2.322       C42.89,60.267,42.589,61.139,42.471,61.74z" fill="#093260"/></g></g><g><path d="M37.5,55.853c-0.414,0-0.75-0.336-0.75-0.75v-3.762c0-0.414,0.336-0.75,0.75-0.75s0.75,0.336,0.75,0.75      v3.762C38.25,55.517,37.914,55.853,37.5,55.853z" fill="#093260"/></g><g><path d="M37.5,49.202c-0.414,0-0.75-0.336-0.75-0.75V44.69c0-0.414,0.336-0.75,0.75-0.75s0.75,0.336,0.75,0.75      v3.762C38.25,48.866,37.914,49.202,37.5,49.202z" fill="#093260"/></g><g><g><g><circle cx="37.5" cy="43.38" fill="#EAE8C3" r="1.875"/></g><g><path d="M37.5,42.868c-0.795,0-1.47,0.496-1.743,1.193c0.273,0.697,0.948,1.193,1.743,1.193        s1.47-0.496,1.744-1.193C38.97,43.364,38.295,42.868,37.5,42.868z" fill="#D1CD9D"/></g><g><path d="M37.5,46.005c-1.447,0-2.625-1.178-2.625-2.625s1.178-2.625,2.625-2.625s2.625,1.178,2.625,2.625        S38.947,46.005,37.5,46.005z M37.5,42.255c-0.62,0-1.125,0.505-1.125,1.125s0.505,1.125,1.125,1.125S38.625,44,38.625,43.38        S38.12,42.255,37.5,42.255z" fill="#093260"/></g></g><g><g><circle cx="37.5" cy="49.468" fill="#EAE8C3" r="1.875"/></g><g><path d="M37.5,48.954c-0.795,0-1.47,0.496-1.743,1.195c0.273,0.697,0.948,1.191,1.743,1.191        s1.47-0.494,1.744-1.191C38.97,49.45,38.295,48.954,37.5,48.954z" fill="#D1CD9D"/></g><g><path d="M37.5,52.091c-1.447,0-2.625-1.177-2.625-2.623c0-1.448,1.178-2.627,2.625-2.627        s2.625,1.179,2.625,2.627C40.125,50.914,38.947,52.091,37.5,52.091z M37.5,48.341c-0.62,0-1.125,0.506-1.125,1.127        c0,0.619,0.505,1.123,1.125,1.123s1.125-0.504,1.125-1.123C38.625,48.847,38.12,48.341,37.5,48.341z" fill="#093260"/></g></g></g></g><g><g><path d="M47.895,18.847v10.492c0,5.207-4.223,9.43-9.429,9.43h-2.575c-5.206,0-9.429-4.223-9.429-9.43V18.847      H47.895z" fill="#FFE6E1"/></g><g><path d="M47.895,17.321v10.492c0,5.207-4.223,9.428-9.429,9.428h-2.575c-5.206,0-9.429-4.221-9.429-9.428V17.321      H47.895z" fill="#F2D1C9"/></g><g><path d="M26.462,26.187c0.351,0.145,0.732,0.225,1.134,0.225h11.866c1.216,0,2.257-0.732,2.717-1.777      c0.456,1.045,1.498,1.777,2.713,1.777h3.003v-6.025H26.462V26.187z" fill="#E8B6AC"/></g><g><path d="M26.462,24.649c0.351,0.145,0.732,0.223,1.134,0.223h11.866c1.216,0,2.257-0.729,2.717-1.775      c0.456,1.047,1.498,1.775,2.713,1.775h3.003v-6.025H26.462V24.649z" fill="#EAB818"/></g><g><path d="M47.895,25.622h-3.003c-1.048,0-2.025-0.44-2.714-1.18c-0.691,0.739-1.669,1.18-2.716,1.18H27.596      c-0.492,0-0.97-0.094-1.42-0.279c-0.28-0.116-0.464-0.39-0.464-0.693v-5.803c0-0.414,0.336-0.75,0.75-0.75h21.433      c0.414,0,0.75,0.336,0.75,0.75v6.025C48.645,25.286,48.309,25.622,47.895,25.622z M42.179,22.347L42.179,22.347      c0.299,0,0.568,0.178,0.688,0.45c0.351,0.805,1.146,1.325,2.025,1.325h2.253v-4.525H27.212v4.493      c0.126,0.021,0.254,0.032,0.384,0.032h11.866c0.879,0,1.676-0.521,2.03-1.327C41.611,22.522,41.881,22.347,42.179,22.347z" fill="#093260"/></g><g><path d="M37.177,18.114c5.895,0,10.671,1.594,10.671,3.562v2.33c0-1.967-4.776-3.561-10.671-3.561      c-5.893,0-10.669,1.594-10.669,3.561v-2.33C26.508,19.708,31.284,18.114,37.177,18.114z" fill="#F26606"/></g><g><path d="M38.466,39.519h-2.575c-5.612,0-10.179-4.566-10.179-10.18V18.847c0-0.414,0.336-0.75,0.75-0.75h21.433      c0.414,0,0.75,0.336,0.75,0.75v10.492C48.645,34.952,44.078,39.519,38.466,39.519z M27.212,19.597v9.742      c0,4.786,3.894,8.68,8.679,8.68h2.575c4.785,0,8.679-3.894,8.679-8.68v-9.742H27.212z" fill="#093260"/></g><g><g><g><path d="M37.159,15.659c6.189,0,11.207,1.676,11.207,3.742v3.543h-0.015c-0.158-2.02-5.103-3.643-11.192-3.643        c-6.089,0-11.032,1.623-11.192,3.643h-0.016v-3.543C25.951,17.335,30.971,15.659,37.159,15.659z" fill="#F7F5DC"/></g><g><path d="M37.159,16.854c6.189,0,11.207,1.676,11.207,3.74v2.447c0-2.064-5.018-3.742-11.207-3.742        c-6.188,0-11.208,1.678-11.208,3.742v-2.447C25.951,18.53,30.971,16.854,37.159,16.854z" fill="#EAE8C3"/></g><g><g><path d="M37.159,15.659c-4.557,0-8.473,0.914-10.227,2.215c0.243-0.871,0.373-1.777,0.373-2.715         c0-1.746-0.449-3.395-1.227-4.867c2.234-2.443,5.586-4.002,9.339-4.002c6.731,0,12.187,5.002,12.187,11.17         c0,0.186-0.022,0.375-0.032,0.564C45.926,16.64,41.893,15.659,37.159,15.659z" fill="#1BC1A9"/></g></g><g><path d="M35.418,8.458c6.107,0,11.164,4.115,12.048,9.486c-1.707-1.342-5.665-2.285-10.307-2.285        c-4.266,0-7.971,0.799-9.863,1.971c0.003-0.104,0.01-0.203,0.01-0.305c0-0.371-0.023-0.734-0.063-1.094        c0.04-0.352,0.063-0.711,0.063-1.072c0-1.172-0.205-2.297-0.573-3.355C28.941,9.741,32.015,8.458,35.418,8.458z" fill="#0CAFAF"/></g><g><path d="M44.369,16.546c-1.946-0.551-4.457-0.887-7.21-0.887c-4.266,0-7.971,0.799-9.863,1.971        c0.003-0.104,0.01-0.203,0.01-0.305c0-0.371-0.023-0.734-0.063-1.094c0.016-0.139,0.026-0.277,0.037-0.418        c2.156-1.781,5.007-2.871,8.139-2.871C38.961,12.942,42.142,14.333,44.369,16.546z" fill="#109BAD"/></g><g><path d="M26.477,11.683c0,1.43-1.164,2.594-2.597,2.594s-2.593-1.164-2.593-2.594        c0-1.436,1.16-2.598,2.593-2.598S26.477,10.247,26.477,11.683z" fill="#F7F5DC"/></g><g><path d="M26.04,10.245c0.276,0.41,0.437,0.904,0.437,1.438c0,0.758-0.328,1.438-0.848,1.91        c-0.273-0.41-0.434-0.902-0.434-1.434C25.195,11.399,25.521,10.72,26.04,10.245z" fill="#EAE8C3"/></g></g><g><g><g><path d="M48.366,23.794c-0.414,0-0.75-0.336-0.75-0.75c0-1.219-4.073-2.99-10.457-2.99         s-10.458,1.771-10.458,2.99c0,0.414-0.336,0.75-0.75,0.75s-0.75-0.336-0.75-0.75c0-2.948,6.016-4.49,11.958-4.49         c5.941,0,11.957,1.542,11.957,4.49C49.116,23.458,48.78,23.794,48.366,23.794z" fill="#093260"/></g></g><g><g><path d="M48.366,23.794c-0.414,0-0.75-0.336-0.75-0.75c0-1.219-4.073-2.99-10.457-2.99         s-10.458,1.771-10.458,2.99c0,0.414-0.336,0.75-0.75,0.75s-0.75-0.336-0.75-0.75c0-2.948,6.016-4.49,11.958-4.49         c5.941,0,11.957,1.542,11.957,4.49C49.116,23.458,48.78,23.794,48.366,23.794z" fill="#093260"/></g></g><g><path d="M48.366,23.694c-0.414,0-0.75-0.336-0.75-0.75v-3.543c0-1.22-4.073-2.992-10.457-2.992        s-10.458,1.772-10.458,2.992v3.543c0,0.414-0.336,0.75-0.75,0.75s-0.75-0.336-0.75-0.75v-3.543        c0-2.949,6.016-4.492,11.958-4.492c5.941,0,11.957,1.543,11.957,4.492v3.543C49.116,23.358,48.78,23.694,48.366,23.694z" fill="#093260"/></g><g><g><path d="M47.572,18.774c-0.174,0-0.345-0.061-0.482-0.176c-1.296-1.09-4.869-2.189-9.931-2.189         c-4.183,0-8.112,0.831-9.78,2.067c-0.256,0.189-0.607,0.196-0.871,0.016c-0.265-0.182-0.384-0.511-0.298-0.819         c0.229-0.821,0.346-1.667,0.346-2.514c0-1.564-0.384-3.084-1.14-4.517c-0.148-0.28-0.104-0.623,0.109-0.856         c2.468-2.698,6.073-4.246,9.893-4.246c7.133,0,12.937,5.348,12.937,11.92c0,0.137-0.01,0.275-0.021,0.414l-0.013,0.189         c-0.015,0.284-0.189,0.535-0.45,0.648C47.775,18.754,47.674,18.774,47.572,18.774z M37.159,14.909         c3.912,0,7.486,0.667,9.662,1.755c-0.447-5.375-5.391-9.624-11.403-9.624c-3.221,0-6.264,1.229-8.433,3.39         c0.711,1.507,1.07,3.096,1.07,4.729c0,0.426-0.025,0.852-0.076,1.275C30.182,15.476,33.505,14.909,37.159,14.909z" fill="#093260"/></g></g><g><path d="M23.88,15.026c-1.843,0-3.343-1.5-3.343-3.344c0-1.846,1.5-3.348,3.343-3.348        c1.846,0,3.347,1.502,3.347,3.348C27.227,13.526,25.726,15.026,23.88,15.026z M23.88,9.835c-1.016,0-1.843,0.829-1.843,1.848        c0,1.017,0.827,1.844,1.843,1.844c1.019,0,1.847-0.827,1.847-1.844C25.727,10.664,24.898,9.835,23.88,9.835z" fill="#093260"/></g></g></g><g><circle cx="42.963" cy="27.716" fill="#093260" r="1.137"/><circle cx="31.394" cy="27.716" fill="#093260" r="1.137"/></g><g><g><g><path d="M52.389,17.356h1.369v5.43c0,2.482-2.014,4.496-4.495,4.496h-1.368v-5.432        C47.895,19.37,49.905,17.356,52.389,17.356z" fill="#FFE6E1"/></g><g><path d="M52.389,19.044h1.369v3.742c0,2.482-2.014,4.496-4.495,4.496h-1.368v-3.744        C47.895,21.058,49.905,19.044,52.389,19.044z" fill="#F2D1C9"/></g><g><path d="M49.263,28.032h-1.368c-0.414,0-0.75-0.336-0.75-0.75v-5.432c0-2.892,2.353-5.244,5.244-5.244h1.369        c0.414,0,0.75,0.336,0.75,0.75v5.43C54.508,25.679,52.155,28.032,49.263,28.032z M48.645,26.532h0.618        c2.065,0,3.745-1.681,3.745-3.746v-4.68h-0.619c-2.064,0-3.744,1.68-3.744,3.744V26.532z" fill="#093260"/></g></g><g><g><path d="M21.969,17.356h-1.37v5.43c0,2.482,2.012,4.496,4.495,4.496h1.368v-5.432        C26.462,19.37,24.45,17.356,21.969,17.356z" fill="#FFE6E1"/></g><g><path d="M26.462,23.538v3.744h-1.368c-2.483,0-4.495-2.014-4.495-4.496v-3.742h1.37        C24.45,19.044,26.462,21.058,26.462,23.538z" fill="#F2D1C9"/></g><g><path d="M26.462,28.032h-1.368c-2.893,0-5.245-2.354-5.245-5.246v-5.43c0-0.414,0.336-0.75,0.75-0.75h1.37        c2.891,0,5.243,2.353,5.243,5.244v5.432C27.212,27.696,26.876,28.032,26.462,28.032z M21.349,18.106v4.68        c0,2.065,1.68,3.746,3.745,3.746h0.618v-4.682c0-2.064-1.679-3.744-3.743-3.744H21.349z" fill="#093260"/></g></g></g><g><path d="M42.428,30.62c0,2.9-2.35,5.252-5.25,5.252c-2.899,0-5.249-2.352-5.249-5.252H42.428z" fill="#AA1F4D"/></g><g><path d="M40.427,34.737c-0.894,0.709-2.019,1.135-3.249,1.135c-1.228,0-2.354-0.426-3.248-1.135      c0.475-1.336,1.747-2.297,3.248-2.297S39.954,33.401,40.427,34.737z" fill="#BC2A54"/></g><g><path d="M37.178,36.622c-3.308,0-5.999-2.692-5.999-6.002c0-0.414,0.336-0.75,0.75-0.75h10.499      c0.414,0,0.75,0.336,0.75,0.75C43.178,33.93,40.486,36.622,37.178,36.622z M32.741,31.37c0.357,2.127,2.211,3.752,4.437,3.752      s4.08-1.625,4.438-3.752H32.741z" fill="#093260"/></g></g></g></g></svg>